<?xml version="1.0" encoding="UTF-8"?>
<svg width="439px" height="364px" viewBox="0 0 439 364" version="1.1" xmlns="http://www.w3.org/2000/svg" xmlns:xlink="http://www.w3.org/1999/xlink">
    <!-- Generator: Sketch 53.2 (72643) - https://sketchapp.com -->
    <title>Group 71</title>
    <desc>Created with Sketch.</desc>
    <defs>
        <polygon id="path-1" points="0 363 439 363 439 0.0262881356 0 0.0262881356"></polygon>
    </defs>
    <g id="Page-1" stroke="none" stroke-width="1" fill="none" fill-rule="evenodd">
        <g id="https://www.freshworks.com/freshsales-crm/sdr-sales-development-reps/" transform="translate(-826.000000, -563.000000)">
            <g id="Group-71" transform="translate(826.000000, 563.000000)">
                <polygon id="Fill-1" fill="#D3D3EA" points="16 145 185 145 185 41 16 41"></polygon>
                <polygon id="Fill-2" fill="#F0F0F7" points="134 105 288 105 288 1 134 1"></polygon>
                <path d="M136,105 L290,105 L290,0 L136,0 L136,105 Z M137.062746,103.934941 L288.936695,103.934941 L288.936695,1.06450068 L137.062746,1.06450068 L137.062746,103.934941 Z" id="Fill-3" fill="#636382"></path>
                <g id="Group-70" transform="translate(0.000000, 1.000000)">
                    <path d="M157.145223,352.372881 C157.145223,352.372881 152.827364,357.160678 154.349045,360.20339 C154.90828,361.322034 167.211465,361.881356 170.007643,360.20339 C172.803822,358.525424 167.770701,358.525424 166.092994,356.847458 C164.415287,355.169492 164.974522,351.813559 163.296815,350.694915 C161.619108,349.576271 157.145223,352.372881 157.145223,352.372881" id="Fill-4" fill="#180C51"></path>
                    <path d="M193.495541,351.813559 C193.495541,351.813559 190.91355,360.14578 194.614013,360.762712 C197.969427,361.322034 210.272611,361.971966 210.272611,360.20339 C210.272611,356.847458 206.312664,357.462712 203.561783,355.169492 C200.206369,352.372881 199.087898,349.016949 199.087898,349.016949 L193.495541,351.813559 Z" id="Fill-6" fill="#180C51"></path>
                    <path d="M110.725922,361.322034 C109.602977,361.322034 108.635499,360.478576 108.505757,359.336441 L92.2879222,216.15 C92.1486725,214.922288 93.0311464,213.814271 94.2592279,213.675 C95.483954,213.536847 96.5945961,214.418339 96.7332865,215.64661 L112.951121,358.833051 C113.09093,360.060763 112.207897,361.16878 110.980374,361.308051 C110.895371,361.317559 110.809808,361.322034 110.725922,361.322034" id="Fill-8" fill="#8E86AD"></path>
                    <path d="M49.7692343,363 C48.646289,363 47.6788113,362.156542 47.5490687,361.014407 L31.3312343,217.827966 C31.1919846,216.600254 32.0744585,215.492237 33.30254,215.352966 C34.5255884,215.214254 35.6373489,216.096305 35.7765986,217.324576 L51.994433,360.511017 C52.1342419,361.738729 51.2512088,362.846746 50.0236865,362.986017 C49.9386827,362.995525 49.8531196,363 49.7692343,363" id="Fill-10" fill="#8E86AD"></path>
                    <mask id="mask-2" fill="white">
                        <use xlink:href="#path-1"></use>
                    </mask>
                    <g id="Clip-13"></g>
                    <polygon id="Fill-12" fill="#DEEAFC" mask="url(#mask-2)" points="97.3070064 257.288136 439 257.288136 439 58.7288136 97.3070064 58.7288136"></polygon>
                    <polygon id="Fill-14" fill="#B4B4D8" mask="url(#mask-2)" points="295.276433 214.779661 412.156688 214.779661 412.156688 148.220339 295.276433 148.220339"></polygon>
                    <polygon id="Fill-15" fill="#B4B4D8" mask="url(#mask-2)" points="151.552866 214.779661 268.433121 214.779661 268.433121 148.220339 151.552866 148.220339"></polygon>
                    <path d="M155.467516,351.813559 C155.467516,351.813559 166.092994,307.067797 164.974522,298.118644 C163.856051,289.169492 163.801805,270.184983 167.743857,265.693627 C171.68535,261.20339 194.054777,257.847458 197.410191,265.118644 C200.765605,272.389831 201.324841,314.338983 201.324841,322.728814 C201.324841,331.118644 201.884076,352.932203 201.884076,352.932203 L192.37707,354.050847 C192.37707,354.050847 183.708917,303.991525 180.353503,292.245763 C180.353503,292.245763 173.083439,343.70339 165.25414,353.771186 C165.25414,353.771186 157.984076,356.567797 155.467516,351.813559" id="Fill-16" fill="#2D1570" mask="url(#mask-2)"></path>
                    <polygon id="Fill-17" fill="#E5E3FC" mask="url(#mask-2)" points="200.765605 202.474576 256.689172 202.474576 256.689172 189.050847 200.765605 189.050847"></polygon>
                    <path d="M203.089397,219.409337 C203.089397,219.409337 212.041082,218.695083 210.272779,218.695083 C209.713544,218.695083 210.272779,204.15271 208.595072,200.237456 C206.917365,196.322202 200.765773,197.440846 202.44348,195.76288 C204.121187,194.084914 205.239658,196.881524 206.35813,195.203558 C207.476601,193.525592 205.798894,190.728981 207.476601,189.610337 C209.154308,188.491693 211.950486,189.610337 212.509722,192.406947 C213.068958,195.203558 211.950486,198.55949 212.509722,200.237456 C213.068958,201.915422 216.983607,211.423897 216.983607,218.135761 C216.983607,224.847625 216.424372,223.728981 214.746665,224.847625 C213.068958,225.966269 207.476601,228.203558 207.476601,228.203558 L203.089397,219.409337 Z" id="Fill-18" fill="#E69370" mask="url(#mask-2)"></path>
                    <path d="M174.481529,217.576271 L174.481529,210.305085 C174.481529,210.305085 175.6,199.677966 178.955414,199.118644 C182.310828,198.559322 185.531466,201.641186 185.598575,206.532458 C185.666242,211.423729 186.784713,214.220339 183.429299,214.220339 L183.429299,219.813559 L174.481529,217.576271 Z" id="Fill-19" fill="#E69370" mask="url(#mask-2)"></path>
                    <path d="M173.922293,213.661017 C173.922293,213.661017 171.68535,210.305085 170.566879,206.949153 C169.448408,203.59322 169.448408,199.677966 171.126115,198 C172.803822,196.322034 174.481529,195.20339 175.6,193.525424 C176.718471,191.847458 182.310828,190.169492 183.988535,192.966102 C185.666242,195.762712 185.107006,198 185.107006,198 C185.107006,198 186.225478,200.237288 186.225478,201.355932 C186.225478,202.474576 185.666242,207.508475 185.666242,207.508475 C185.666242,207.508475 184.547771,203.59322 183.429299,204.711864 C182.310828,205.830508 183.988535,210.305085 182.870064,211.983051 C181.751592,213.661017 177.836943,214.779661 173.922293,213.661017" id="Fill-20" fill="#291176" mask="url(#mask-2)"></path>
                    <path d="M150.993631,238.271186 C150.993631,238.271186 145.401274,247.779661 147.638217,251.135593 C149.875159,254.491525 152.112102,256.169492 155.467516,257.847458 C158.82293,259.525424 163.856051,260.084746 167.211465,262.322034 L167.770701,258.40678 C167.770701,258.40678 166.372611,258.127119 161.898726,254.211864 C157.424841,250.29661 158.543312,248.618644 155.747134,247.5 L157.984076,244.70339 L150.993631,238.271186 Z" id="Fill-21" fill="#E69370" mask="url(#mask-2)"></path>
                    <path d="M149.315924,238.830508 C149.315924,238.830508 156.026752,248.338983 159.382166,247.220339 C162.73758,246.101695 163.296815,242.186441 163.296815,242.186441 C163.296815,242.186441 167.211465,251.694915 167.211465,255.050847 C167.211465,258.40678 163.856051,267.915254 166.652229,270.711864 C169.448408,273.508475 194.054777,272.949153 197.969427,268.474576 C201.884076,264 192.936306,247.220339 197.969427,237.711864 C203.002548,228.20339 208.035669,233.79661 209.15414,227.644068 C210.272611,221.491525 210.272611,218.135593 199.647134,218.135593 C189.021656,218.135593 170.566879,213.101695 162.178344,220.932203 C156.367326,226.355949 149.315924,238.830508 149.315924,238.830508" id="Fill-22" fill="#F28166" mask="url(#mask-2)"></path>
                    <path d="M44.1796178,172.53748 C44.1796178,172.53748 41.4539032,177.444412 41.999158,188.894293 C42.5438535,200.344175 44.1796178,211.794615 44.1796178,216.156208 L44.1796178,247.779717 L55.6277312,247.779717 C55.6277312,247.779717 58.3534459,217.791666 58.3534459,207.977802 C58.3534459,198.163378 59.4439554,188.349514 60.5339057,188.894293 C61.6244153,189.439632 74.6540471,198.654463 77.4340076,201.434853 C77.9787032,201.980192 71.0229299,207.508531 68.2267516,212.542429 L75.4968153,216.457683 C75.4968153,216.457683 89.4268166,205.796446 90.5173261,201.980192 C91.6078357,198.163378 90.5173261,197.618039 87.7916115,194.891903 C85.0653376,192.165768 71.4367643,175.808954 63.8048752,171.446802 C63.8048752,171.446802 44.1796178,172.874751 44.1796178,172.53748" id="Fill-23" fill="#2E3192" mask="url(#mask-2)"></path>
                    <path d="M64.8713376,149.338983 C65.9898089,148.779661 66.4578892,148.71478 67.6675159,147.101695 C69.3452229,144.864407 71.0229299,145.983051 71.5821656,146.542373 C72.1414013,147.101695 72.7006369,148.220339 72.7006369,148.220339 C72.7006369,148.220339 70.4636943,151.576271 65.4305732,152.135593 C60.3974522,152.694915 62.0751592,149.898305 62.0751592,149.898305 C62.0751592,149.898305 63.7528662,149.898305 64.8713376,149.338983" id="Fill-24" fill="#C26641" mask="url(#mask-2)"></path>
                    <path d="M45.2980892,126.40678 C47.3790051,123.284644 46.9757962,123.050847 46.9757962,119.135593 C46.9757962,115.220339 46.4165605,110.186441 51.4496815,109.067797 C56.4828025,107.949153 59.8382166,110.745763 59.8382166,112.983051 C59.8382166,115.220339 60.2492548,117.161186 60.9566879,118.576271 C61.5159236,119.694915 61.0472841,120.254237 59.2789809,120.254237 C58.7197452,120.254237 59.8382166,124.169492 59.2789809,125.288136 C58.7197452,126.40678 55.3643312,124.728814 54.8050955,126.40678 C54.2458599,128.084746 55.9235669,130.322034 55.9235669,130.322034 C55.9235669,130.322034 41.9426752,131.440678 45.2980892,126.40678" id="Fill-25" fill="#C26641" mask="url(#mask-2)"></path>
                    <path d="M45.8573248,125.847458 C45.8573248,125.847458 43.0611465,127.525424 39.1464968,129.762712 C35.2318471,132 36.9095541,139.271186 39.1464968,146.542373 C39.1464968,146.542373 43.0611465,158.847458 43.0611465,168.915254 C43.0611465,175.092966 45.2980892,172.830508 52.0089172,172.830508 C58.7197452,172.830508 62.0751592,173.389831 63.7528662,171.711864 C65.4305732,170.033898 67.6675159,140.949153 62.0751592,136.474576 C58.9876191,134.004051 55.3643312,129.20339 55.3643312,129.20339 C55.3643312,129.20339 49.2127389,130.322034 45.8573248,125.847458" id="Fill-26" fill="#00A99D" mask="url(#mask-2)"></path>
                    <path d="M51.4496815,114.101695 C51.4496815,114.101695 50.8904459,115.779661 50.8904459,117.457627 C50.8904459,119.226203 46.9702038,122.28178 46.9702038,122.28178 C46.9702038,122.28178 44.7388535,118.576271 46.4165605,111.864407 C48.0942675,105.152542 51.4496815,107.949153 56.4828025,106.830508 C61.5159236,105.711864 64.3121019,107.389831 63.1936306,109.627119 C62.0751592,111.864407 60.9566879,113.542373 58.7197452,112.423729 C56.4828025,111.305085 55.9235669,111.305085 55.3643312,111.864407 C54.8050955,112.423729 55.9235669,116.898305 55.3643312,116.898305 C53.596028,116.898305 53.6866242,115.220339 53.6866242,115.220339 C53.6866242,115.220339 54.2458599,112.423729 51.4496815,114.101695" id="Fill-27" fill="#331D83" mask="url(#mask-2)"></path>
                    <polygon id="Fill-28" fill="#4B33A9" mask="url(#mask-2)" points="56.4828025 162.20339 73.8191083 145.423729 86.122293 145.423729 69.9044586 161.644068"></polygon>
                    <path d="M40.2649682,145.423729 C40.2649682,145.423729 40.5378752,141.649424 44.7388535,140.949153 C48.0942675,140.389831 50.3312102,141.508475 50.3312102,141.508475 C50.3312102,141.508475 50.8904459,149.338983 50.8904459,152.135593 C50.8904459,152.135593 62.0751592,151.576271 64.8713376,151.016949 C64.8713376,151.016949 65.6822293,149.646051 67.1082803,148.220339 C68.2267516,147.101695 68.2267516,147.101695 68.7859873,147.101695 C69.3452229,147.101695 68.7859873,148.779661 68.7859873,148.779661 C68.7859873,148.779661 68.2267516,150.457627 69.3452229,149.898305 C70.4636943,149.338983 71.5821656,147.661017 73.2598726,147.661017 C74.9375796,147.661017 75.4968153,148.220339 74.9375796,149.898305 C74.3783439,151.576271 71.5821656,153.254237 67.1082803,154.372881 C62.6343949,155.491525 55.9235669,157.728814 55.9235669,157.728814 C55.9235669,157.728814 49.7719745,159.966102 47.5350318,159.40678 C45.2980892,158.847458 41.3834395,148.779661 40.2649682,145.423729" id="Fill-29" fill="#C26641" mask="url(#mask-2)"></path>
                    <path d="M65.4305732,143.186441 L69.3452229,149.898305 L70.4636943,148.779661 L66.5490446,142.067797 C66.5490446,142.067797 65.4305732,141.508475 65.4305732,143.186441" id="Fill-30" fill="#6AB5F1" mask="url(#mask-2)"></path>
                    <path d="M44.1796178,247.779661 C44.1796178,247.779661 43.6203822,263.440678 46.9757962,264.559322 C50.3312102,265.677966 65.9898089,264.559322 65.9898089,264.559322 C65.9898089,264.559322 68.7859873,263.440678 67.1082803,261.762712 C65.4305732,260.084746 60.9566879,258.966102 59.2789809,256.728814 C57.6012739,254.491525 55.9235669,252.254237 55.9235669,247.779661 C55.9235669,247.779661 44.3015312,247.657729 44.1796178,247.779661" id="Fill-31" fill="#5576D1" mask="url(#mask-2)"></path>
                    <path d="M68.7859873,211.423729 L76.056051,216.457627 C76.056051,216.457627 72.7006369,218.694915 73.2598726,220.372881 C73.8191083,222.050847 81.089172,223.728814 82.2076433,224.847458 C83.3261146,225.966102 82.2076433,227.084746 81.089172,227.084746 L61.5159236,227.084746 C61.5159236,227.084746 59.2789809,225.966102 60.9566879,223.169492 C62.6343949,220.372881 68.7859873,211.423729 68.7859873,211.423729" id="Fill-32" fill="#5576D1" mask="url(#mask-2)"></path>
                    <polygon id="Fill-33" fill="#2D1570" mask="url(#mask-2)" points="104.646975 248.338983 123.101752 248.338983 123.101752 64.8813559 104.646975 64.8813559"></polygon>
                    <path d="M16.7798103,361.322034 C16.6931288,361.322034 16.6053288,361.317 16.5164103,361.306932 C15.2894473,361.163186 14.4120065,360.051814 14.5551708,358.824102 L31.3322409,215.637661 C31.4759645,214.411068 32.5860473,213.53461 33.814688,213.676119 C35.0416511,213.819864 35.9196511,214.931237 35.7759275,216.158949 L18.9988575,359.34539 C18.8652001,360.484169 17.8988409,361.322034 16.7798103,361.322034" id="Fill-34" fill="#2D1570" mask="url(#mask-2)"></path>
                    <path d="M76.6180269,361.322034 C76.5313454,361.322034 76.4435454,361.317 76.3546269,361.306932 C75.1276638,361.163186 74.2502231,360.051814 74.3933874,358.824102 L91.1704575,215.637661 C91.314181,214.411068 92.4237046,213.53461 93.6529046,213.676119 C94.8798676,213.819864 95.7578676,214.931237 95.6141441,216.158949 L78.837074,359.34539 C78.7034167,360.484169 77.7370575,361.322034 76.6180269,361.322034" id="Fill-35" fill="#2D1570" mask="url(#mask-2)"></path>
                    <path d="M432.848408,363 L1.11847134,363 C0.501075159,363 0,362.498847 0,361.881356 C0,361.263864 0.501075159,360.762712 1.11847134,360.762712 L432.848408,360.762712 C433.465804,360.762712 433.966879,361.263864 433.966879,361.881356 C433.966879,362.498847 433.465804,363 432.848408,363" id="Fill-36" fill="#2D1570" mask="url(#mask-2)"></path>
                    <path d="M90.0369427,231.559322 L32.9949045,231.559322 C31.7595529,231.559322 30.7579618,230.557576 30.7579618,229.322034 C30.7579618,228.086492 31.7595529,227.084746 32.9949045,227.084746 L90.0369427,227.084746 C91.2722943,227.084746 92.2738854,228.086492 92.2738854,229.322034 C92.2738854,230.557576 91.2722943,231.559322 90.0369427,231.559322" id="Fill-37" fill="#2D1570" mask="url(#mask-2)"></path>
                    <path d="M86.122293,268.474576 L29.0802548,268.474576 C27.8449032,268.474576 26.8433121,267.472831 26.8433121,266.237288 C26.8433121,265.001746 27.8449032,264 29.0802548,264 L86.122293,264 C87.3576446,264 88.3592357,265.001746 88.3592357,266.237288 C88.3592357,267.472831 87.3576446,268.474576 86.122293,268.474576" id="Fill-38" fill="#2D1570" mask="url(#mask-2)"></path>
                    <path d="M82.766879,300.355932 L25.7248408,300.355932 C24.4894892,300.355932 23.4878981,299.354186 23.4878981,298.118644 C23.4878981,296.883102 24.4894892,295.881356 25.7248408,295.881356 L82.766879,295.881356 C84.0022306,295.881356 85.0038217,296.883102 85.0038217,298.118644 C85.0038217,299.354186 84.0022306,300.355932 82.766879,300.355932" id="Fill-39" fill="#2D1570" mask="url(#mask-2)"></path>
                    <path d="M76.6152866,334.474576 L19.5732484,334.474576 C18.3378968,334.474576 17.3363057,333.472831 17.3363057,332.237288 C17.3363057,331.001746 18.3378968,330 19.5732484,330 L76.6152866,330 C77.8506382,330 78.8522293,331.001746 78.8522293,332.237288 C78.8522293,333.472831 77.8506382,334.474576 76.6152866,334.474576" id="Fill-40" fill="#2D1570" mask="url(#mask-2)"></path>
                    <path d="M119.46672,78.3050847 C119.46672,81.3942203 116.962462,83.8983051 113.874363,83.8983051 C110.786264,83.8983051 108.282006,81.3942203 108.282006,78.3050847 C108.282006,75.2159492 110.786264,72.7118644 113.874363,72.7118644 C116.962462,72.7118644 119.46672,75.2159492 119.46672,78.3050847" id="Fill-41" fill="#645E8C" mask="url(#mask-2)"></path>
                    <path d="M119.46672,94.5254237 C119.46672,97.6145593 116.962462,100.118644 113.874363,100.118644 C110.786264,100.118644 108.282006,97.6145593 108.282006,94.5254237 C108.282006,91.4362881 110.786264,88.9322034 113.874363,88.9322034 C116.962462,88.9322034 119.46672,91.4362881 119.46672,94.5254237" id="Fill-42" fill="#645E8C" mask="url(#mask-2)"></path>
                    <path d="M119.46672,111.864407 C119.46672,114.953542 116.962462,117.457627 113.874363,117.457627 C110.786264,117.457627 108.282006,114.953542 108.282006,111.864407 C108.282006,108.775271 110.786264,106.271186 113.874363,106.271186 C116.962462,106.271186 119.46672,108.775271 119.46672,111.864407" id="Fill-43" fill="#645E8C" mask="url(#mask-2)"></path>
                    <path d="M119.676433,236.59322 C119.676433,239.681797 117.172176,242.186441 114.084076,242.186441 C110.995977,242.186441 108.49172,239.681797 108.49172,236.59322 C108.49172,233.504644 110.995977,231 114.084076,231 C117.172176,231 119.676433,233.504644 119.676433,236.59322" id="Fill-44" fill="#8E86AD" mask="url(#mask-2)"></path>
                    <polygon id="Fill-45" fill="#B4B4D8" mask="url(#mask-2)" points="151.552866 95.6440678 411.597452 95.6440678 411.597452 87.8135593 151.552866 87.8135593"></polygon>
                    <polygon id="Fill-46" fill="#E5E3FC" mask="url(#mask-2)" points="201.324841 167.033695 255.011465 167.033695 255.011465 162.762712 201.324841 162.762712"></polygon>
                    <polygon id="Fill-47" fill="#636382" mask="url(#mask-2)" points="164.974522 22.3728814 261.163057 22.3728814 261.163057 20.1355932 164.974522 20.1355932"></polygon>
                    <polygon id="Fill-48" fill="#636382" mask="url(#mask-2)" points="163.856051 38.5932203 230.405096 38.5932203 230.405096 36.3559322 163.856051 36.3559322"></polygon>
                    <path d="M180.493312,159.967724 C184.720575,160.930317 188.056415,164.267232 189.019978,168.495707 L180.493312,168.495707 L180.493312,159.967724 Z M177.976752,157.169436 L177.976752,171.012656 L191.817834,171.012656 C191.817834,163.366164 185.622062,157.169436 177.976752,157.169436 L177.976752,157.169436 Z" id="Fill-49" fill="#E5E3FC" mask="url(#mask-2)"></path>
                    <path d="M175.460191,184.855932 C174.128092,184.855932 172.85639,184.612068 171.668014,184.186983 L175.041324,176.04661 L186.503418,176.04661 C185.355307,181.082746 180.840038,184.855932 175.460191,184.855932 L175.460191,184.855932 Z M164.135669,173.529661 C164.135669,168.148983 167.906595,163.631339 172.943631,162.484729 L172.943631,174.534763 L169.401991,183.084 C166.24175,181.071 164.135669,177.546153 164.135669,173.529661 L164.135669,173.529661 Z M175.460191,173.529661 L175.460191,159.686441 C167.81488,159.686441 161.619108,165.883169 161.619108,173.529661 C161.619108,181.176712 167.81488,187.372881 175.460191,187.372881 C183.106061,187.372881 189.301274,181.176712 189.301274,173.529661 L175.460191,173.529661 Z" id="Fill-50" fill="#E5E3FC" mask="url(#mask-2)"></path>
                    <polygon id="Fill-51" fill="#E5E3FC" mask="url(#mask-2)" points="313.544985 191.474949 313.544985 161.644068 309.816561 161.644068 309.816561 195.20339 398.175796 195.20339 398.175796 191.474949"></polygon>
                    <polygon id="Fill-52" fill="#E5E3FC" mask="url(#mask-2)" points="318.950557 187.745949 322.678981 187.745949 322.678981 176.559508 318.950557 176.559508"></polygon>
                    <polygon id="Fill-53" fill="#E5E3FC" mask="url(#mask-2)" points="328.21821 187.745949 331.946075 187.745949 331.946075 165.373068 328.21821 165.373068"></polygon>
                    <polygon id="Fill-54" fill="#E5E3FC" mask="url(#mask-2)" points="337.485304 187.745949 341.213729 187.745949 341.213729 172.831068 337.485304 172.831068"></polygon>
                    <polygon id="Fill-55" fill="#E5E3FC" mask="url(#mask-2)" points="346.752399 187.745949 350.480823 187.745949 350.480823 180.289068 346.752399 180.289068"></polygon>
                    <path d="M391.464968,258.966102 C391.464968,258.966102 399.294268,276.305085 399.853503,276.864407 C400.412739,277.423729 402.649682,278.542373 403.208917,279.661017 C403.768153,280.779661 404.327389,282.457627 406.005096,283.016949 C407.682803,283.576271 408.801274,278.542373 407.123567,276.864407 C405.44586,275.186441 403.768153,275.186441 402.649682,272.949153 C401.53121,270.711864 397.057325,256.169492 397.057325,256.169492 L391.464968,258.966102 Z" id="Fill-56" fill="#D68362" mask="url(#mask-2)"></path>
                    <path d="M362.943949,268.474576 C362.943949,268.474576 357.351592,291.966102 357.351592,310.423729 C357.351592,328.881356 353.996178,357.40678 353.996178,357.40678 L360.147771,357.40678 C360.147771,357.40678 375.806369,297 377.484076,291.966102 C377.484076,291.966102 384.75414,338.949153 392.024204,357.40678 L398.735032,357.40678 C398.735032,357.40678 390.346497,288.610169 391.464968,279.101695 C392.583439,269.59322 387.550318,264.559322 387.550318,264.559322 L362.943949,268.474576 Z" id="Fill-57" fill="#3D2F89" mask="url(#mask-2)"></path>
                    <path d="M377.484076,209.186441 C377.484076,209.186441 371.332484,213.661017 372.450955,219.254237 C373.569427,224.847458 378.043312,222.610169 378.043312,222.610169 L374.687898,229.322034 L380.83949,229.881356 L388.109554,216.457627 C388.109554,216.457627 393.142675,205.830508 377.484076,209.186441" id="Fill-58" fill="#D68362" mask="url(#mask-2)"></path>
                    <path d="M351.759236,203.033898 C351.759236,203.033898 351.759236,204.711864 352.318471,208.627119 C352.877707,212.542373 347.844586,223.728814 347.844586,227.644068 C347.844586,231.559322 353.996178,228.20339 353.996178,228.20339 C353.996178,228.20339 353.996178,210.864407 355.673885,208.627119 C357.351592,206.389831 359.029299,208.067797 359.588535,206.389831 C360.147771,204.711864 357.910828,205.830508 356.792357,204.711864 C355.673885,203.59322 357.351592,203.59322 357.351592,203.59322 C357.351592,203.59322 357.910828,201.355932 355.673885,201.355932 C353.436943,201.355932 352.318471,201.915254 351.759236,203.033898" id="Fill-59" fill="#D68362" mask="url(#mask-2)"></path>
                    <path d="M346.166879,226.525424 L355.673885,226.525424 L355.673885,229.322034 C355.673885,229.322034 371.332484,227.644068 376.924841,228.20339 C382.517197,228.762712 390.905732,228.20339 393.701911,235.474576 C396.498089,242.745763 394.261146,251.694915 397.616561,255.050847 C397.616561,255.050847 396.218471,261.483051 391.744586,260.364407 C388.10508,259.45439 388.66879,245.542373 388.66879,245.542373 C388.66879,245.542373 387.550318,257.847458 389.787261,267.355932 C392.024204,276.864407 377.484076,274.067797 370.773248,273.508475 C364.06242,272.949153 360.508478,270.695085 362.943949,261.762712 C362.943949,261.762712 366.019745,257.008475 364.901274,251.974576 C363.782803,246.940678 362.664331,243.584746 362.664331,240.788136 C362.664331,240.788136 352.598089,237.991525 348.683439,235.754237 C344.76879,233.516949 346.166879,226.525424 346.166879,226.525424" id="Fill-60" fill="#E2C759" mask="url(#mask-2)"></path>
                    <path d="M376.924841,209.745763 C376.924841,209.745763 379.469363,212.235305 378.043312,213.661017 C375.806369,215.898305 376.365605,217.016949 379.161783,215.898305 C380.804259,215.241661 381.398726,218.694915 380.83949,221.491525 C380.594545,222.717559 377.314628,229.830458 380.83949,233.79661 C385.313376,238.830508 392.583439,238.271186 396.498089,234.355932 C400.412739,230.440678 400.971975,224.288136 395.379618,219.813559 C389.787261,215.338983 397.057325,211.983051 392.024204,207.508475 C388.285713,204.184983 380.83949,205.271186 376.924841,209.745763" id="Fill-61" fill="#3D2F89" mask="url(#mask-2)"></path>
                    <path d="M398.735032,363 C399.294268,361.322034 398.735032,357.40678 398.175796,356.847458 C397.616561,356.288136 392.583439,356.288136 392.024204,357.966102 C391.464968,359.644068 389.228025,360.762712 387.550318,361.322034 C385.872611,361.881356 386.431847,363 386.431847,363 L398.735032,363 Z" id="Fill-62" fill="#281174" mask="url(#mask-2)"></path>
                    <path d="M346.166879,360.762712 C346.166879,360.762712 346.166879,359.084746 348.403822,358.525424 C350.640764,357.966102 354.555414,356.847458 355.11465,354.050847 L360.707006,354.050847 C360.707006,354.050847 361.266242,357.966102 359.588535,360.762712 L346.166879,360.762712 Z" id="Fill-63" fill="#281174" mask="url(#mask-2)"></path>
                    <polygon id="Fill-64" fill="#E5E3FC" mask="url(#mask-2)" points="356.020052 187.745949 359.748476 187.745949 359.748476 176.559508 356.020052 176.559508"></polygon>
                    <polygon id="Fill-65" fill="#E5E3FC" mask="url(#mask-2)" points="365.287146 187.745949 369.015011 187.745949 369.015011 165.373068 365.287146 165.373068"></polygon>
                    <polygon id="Fill-66" fill="#E5E3FC" mask="url(#mask-2)" points="374.5548 187.745949 378.283224 187.745949 378.283224 172.831068 374.5548 172.831068"></polygon>
                    <polygon id="Fill-67" fill="#E5E3FC" mask="url(#mask-2)" points="383.821894 187.745949 387.550318 187.745949 387.550318 180.289068 383.821894 180.289068"></polygon>
                    <polygon id="Fill-68" fill="#E5E3FC" mask="url(#mask-2)" points="201.324841 178.423729 232.082803 178.423729 232.082803 174.152746 201.324841 174.152746"></polygon>
                    <polygon id="Fill-69" fill="#B4B4D8" mask="url(#mask-2)" points="151.552866 116.338983 304.224204 116.338983 304.224204 109.067797 151.552866 109.067797"></polygon>
                </g>
            </g>
        </g>
    </g>
</svg>