<svg width="373" height="192" viewBox="0 0 373 192" fill="none" xmlns="http://www.w3.org/2000/svg">
<path d="M372.505 191.957H0.495319C0.364206 191.957 0.238595 191.905 0.146017 191.812C0.0534399 191.719 0.00144958 191.594 0.00144958 191.463C0.00144958 191.332 0.0534399 191.206 0.146017 191.113C0.238595 191.021 0.364206 190.968 0.495319 190.968H372.505C372.636 190.968 372.761 191.021 372.854 191.113C372.947 191.206 372.999 191.332 372.999 191.463C372.999 191.594 372.947 191.719 372.854 191.812C372.761 191.905 372.636 191.957 372.505 191.957Z" fill="#3F3D56"/>
<path d="M116.622 23.8601C118.107 23.8601 119.312 22.6575 119.312 21.1741C119.312 19.6907 118.107 18.4882 116.622 18.4882C115.136 18.4882 113.932 19.6907 113.932 21.1741C113.932 22.6575 115.136 23.8601 116.622 23.8601Z" fill="#F2F2F2"/>
<path d="M105.9 23.8601C107.386 23.8601 108.591 22.6575 108.591 21.1741C108.591 19.6907 107.386 18.4882 105.9 18.4882C104.415 18.4882 103.21 19.6907 103.21 21.1741C103.21 22.6575 104.415 23.8601 105.9 23.8601Z" fill="#F2F2F2"/>
<path d="M95.1792 23.8601C96.6649 23.8601 97.8693 22.6575 97.8693 21.1741C97.8693 19.6907 96.6649 18.4882 95.1792 18.4882C93.6935 18.4882 92.4891 19.6907 92.4891 21.1741C92.4891 22.6575 93.6935 23.8601 95.1792 23.8601Z" fill="#F2F2F2"/>
<path d="M84.458 23.8601C85.9437 23.8601 87.1481 22.6575 87.1481 21.1741C87.1481 19.6907 85.9437 18.4882 84.458 18.4882C82.9723 18.4882 81.7679 19.6907 81.7679 21.1741C81.7679 22.6575 82.9723 23.8601 84.458 23.8601Z" fill="#F2F2F2"/>
<path d="M116.622 35.0743C118.107 35.0743 119.312 33.8717 119.312 32.3883C119.312 30.9049 118.107 29.7024 116.622 29.7024C115.136 29.7024 113.932 30.9049 113.932 32.3883C113.932 33.8717 115.136 35.0743 116.622 35.0743Z" fill="#F2F2F2"/>
<path d="M105.9 35.0743C107.386 35.0743 108.591 33.8717 108.591 32.3883C108.591 30.9049 107.386 29.7024 105.9 29.7024C104.415 29.7024 103.21 30.9049 103.21 32.3883C103.21 33.8717 104.415 35.0743 105.9 35.0743Z" fill="#F2F2F2"/>
<path d="M95.1792 35.0743C96.6649 35.0743 97.8693 33.8717 97.8693 32.3883C97.8693 30.9049 96.6649 29.7024 95.1792 29.7024C93.6935 29.7024 92.4891 30.9049 92.4891 32.3883C92.4891 33.8717 93.6935 35.0743 95.1792 35.0743Z" fill="#F2F2F2"/>
<path d="M84.458 35.0743C85.9437 35.0743 87.1481 33.8717 87.1481 32.3883C87.1481 30.9049 85.9437 29.7024 84.458 29.7024C82.9723 29.7024 81.7679 30.9049 81.7679 32.3883C81.7679 33.8717 82.9723 35.0743 84.458 35.0743Z" fill="#F2F2F2"/>
<path d="M116.622 46.2885C118.107 46.2885 119.312 45.0859 119.312 43.6025C119.312 42.1191 118.107 40.9165 116.622 40.9165C115.136 40.9165 113.932 42.1191 113.932 43.6025C113.932 45.0859 115.136 46.2885 116.622 46.2885Z" fill="#F2F2F2"/>
<path d="M105.9 46.2885C107.386 46.2885 108.591 45.0859 108.591 43.6025C108.591 42.1191 107.386 40.9165 105.9 40.9165C104.415 40.9165 103.21 42.1191 103.21 43.6025C103.21 45.0859 104.415 46.2885 105.9 46.2885Z" fill="#F2F2F2"/>
<path d="M95.1792 46.2885C96.6649 46.2885 97.8693 45.0859 97.8693 43.6025C97.8693 42.1191 96.6649 40.9165 95.1792 40.9165C93.6935 40.9165 92.4891 42.1191 92.4891 43.6025C92.4891 45.0859 93.6935 46.2885 95.1792 46.2885Z" fill="#F2F2F2"/>
<path d="M84.458 46.2885C85.9437 46.2885 87.1481 45.0859 87.1481 43.6025C87.1481 42.1191 85.9437 40.9165 84.458 40.9165C82.9723 40.9165 81.7679 42.1191 81.7679 43.6025C81.7679 45.0859 82.9723 46.2885 84.458 46.2885Z" fill="#F2F2F2"/>
<path d="M116.622 57.5026C118.107 57.5026 119.312 56.3001 119.312 54.8167C119.312 53.3333 118.107 52.1307 116.622 52.1307C115.136 52.1307 113.932 53.3333 113.932 54.8167C113.932 56.3001 115.136 57.5026 116.622 57.5026Z" fill="#F2F2F2"/>
<path d="M105.9 57.5026C107.386 57.5026 108.591 56.3001 108.591 54.8167C108.591 53.3333 107.386 52.1307 105.9 52.1307C104.415 52.1307 103.21 53.3333 103.21 54.8167C103.21 56.3001 104.415 57.5026 105.9 57.5026Z" fill="#F2F2F2"/>
<path d="M95.1792 57.5026C96.6649 57.5026 97.8693 56.3001 97.8693 54.8167C97.8693 53.3333 96.6649 52.1307 95.1792 52.1307C93.6935 52.1307 92.4891 53.3333 92.4891 54.8167C92.4891 56.3001 93.6935 57.5026 95.1792 57.5026Z" fill="#F2F2F2"/>
<path d="M84.458 57.5026C85.9437 57.5026 87.1481 56.3001 87.1481 54.8167C87.1481 53.3333 85.9437 52.1307 84.458 52.1307C82.9723 52.1307 81.7679 53.3333 81.7679 54.8167C81.7679 56.3001 82.9723 57.5026 84.458 57.5026Z" fill="#F2F2F2"/>
<path d="M116.622 68.7168C118.107 68.7168 119.312 67.5143 119.312 66.0309C119.312 64.5475 118.107 63.3449 116.622 63.3449C115.136 63.3449 113.932 64.5475 113.932 66.0309C113.932 67.5143 115.136 68.7168 116.622 68.7168Z" fill="#F2F2F2"/>
<path d="M105.9 68.7168C107.386 68.7168 108.591 67.5143 108.591 66.0309C108.591 64.5475 107.386 63.3449 105.9 63.3449C104.415 63.3449 103.21 64.5475 103.21 66.0309C103.21 67.5143 104.415 68.7168 105.9 68.7168Z" fill="#F2F2F2"/>
<path d="M95.1792 68.7168C96.6649 68.7168 97.8693 67.5143 97.8693 66.0309C97.8693 64.5475 96.6649 63.3449 95.1792 63.3449C93.6935 63.3449 92.4891 64.5475 92.4891 66.0309C92.4891 67.5143 93.6935 68.7168 95.1792 68.7168Z" fill="#F2F2F2"/>
<path d="M84.458 68.7168C85.9437 68.7168 87.1481 67.5143 87.1481 66.0309C87.1481 64.5475 85.9437 63.3449 84.458 63.3449C82.9723 63.3449 81.7679 64.5475 81.7679 66.0309C81.7679 67.5143 82.9723 68.7168 84.458 68.7168Z" fill="#F2F2F2"/>
<path d="M116.622 79.931C118.107 79.931 119.312 78.7285 119.312 77.2451C119.312 75.7616 118.107 74.5591 116.622 74.5591C115.136 74.5591 113.932 75.7616 113.932 77.2451C113.932 78.7285 115.136 79.931 116.622 79.931Z" fill="#F2F2F2"/>
<path d="M105.9 79.931C107.386 79.931 108.591 78.7285 108.591 77.2451C108.591 75.7616 107.386 74.5591 105.9 74.5591C104.415 74.5591 103.21 75.7616 103.21 77.2451C103.21 78.7285 104.415 79.931 105.9 79.931Z" fill="#F2F2F2"/>
<path d="M95.1792 79.931C96.6649 79.931 97.8693 78.7285 97.8693 77.2451C97.8693 75.7616 96.6649 74.5591 95.1792 74.5591C93.6935 74.5591 92.4891 75.7616 92.4891 77.2451C92.4891 78.7285 93.6935 79.931 95.1792 79.931Z" fill="#F2F2F2"/>
<path d="M84.458 79.931C85.9437 79.931 87.1481 78.7285 87.1481 77.2451C87.1481 75.7616 85.9437 74.5591 84.458 74.5591C82.9723 74.5591 81.7679 75.7616 81.7679 77.2451C81.7679 78.7285 82.9723 79.931 84.458 79.931Z" fill="#F2F2F2"/>
<path d="M92.9835 150.519V151.35C92.9847 152.726 93.5329 154.046 94.5078 155.02C95.4827 155.993 96.8045 156.54 98.1832 156.542H135.622C137 156.541 138.323 155.994 139.298 155.02C140.273 154.047 140.821 152.727 140.821 151.35V150.519C140.824 149.304 140.397 148.127 139.615 147.196C139.355 146.887 139.06 146.609 138.737 146.366C138.737 146.366 118.154 145.901 118.154 145.327H98.1832C96.8048 145.329 95.4833 145.877 94.5086 146.85C93.5338 147.823 92.9854 149.143 92.9835 150.519Z" fill="#CCCCCC"/>
<path d="M119.907 156.335H114.499V191.224H119.907V156.335Z" fill="#CCCCCC"/>
<path d="M135.299 191.034C135.299 191.618 127.104 191.26 116.995 191.26C106.887 191.26 98.6922 191.618 98.6922 191.034C98.6922 190.451 106.887 185.825 116.995 185.825C127.104 185.825 135.299 190.451 135.299 191.034Z" fill="#CCCCCC"/>
<path d="M127.864 149.815C128.254 149.292 128.525 148.689 128.657 148.051C128.789 147.412 128.779 146.752 128.628 146.117C128.477 145.483 128.189 144.889 127.783 144.377C127.377 143.866 126.864 143.45 126.28 143.158L114.819 104.164L106.091 108.432L120.102 145.42C119.676 146.432 119.636 147.566 119.991 148.605C120.346 149.645 121.071 150.518 122.028 151.06C122.984 151.601 124.107 151.774 125.183 151.544C126.258 151.315 127.212 150.699 127.864 149.815L127.864 149.815Z" fill="#A0616A"/>
<path d="M117.415 110.676L107.647 113.316C107.369 113.391 107.078 113.406 106.794 113.358C106.51 113.311 106.239 113.203 106.001 113.042C105.762 112.881 105.561 112.671 105.412 112.425C105.262 112.18 105.167 111.905 105.133 111.619L103.953 101.615C103.576 100.193 103.779 98.6796 104.518 97.4071C105.257 96.1345 106.471 95.2064 107.894 94.8263C109.317 94.4461 110.833 94.6448 112.11 95.379C113.386 96.1131 114.319 97.3227 114.704 98.7426L118.728 107.945C118.843 108.208 118.9 108.493 118.895 108.781C118.89 109.068 118.823 109.351 118.698 109.61C118.573 109.87 118.394 110.099 118.173 110.283C117.951 110.467 117.693 110.601 117.415 110.676H117.415Z" fill="#6C63FF"/>
<path d="M130.417 186.945L135.517 186.945L137.943 173.738H130.416L130.417 186.945Z" fill="#A0616A"/>
<path d="M129.116 185.282L139.159 185.282H139.16C140 185.282 140.832 185.447 141.609 185.768C142.385 186.09 143.091 186.56 143.685 187.154C144.28 187.747 144.751 188.452 145.073 189.227C145.395 190.002 145.56 190.833 145.56 191.673V191.88L129.116 191.881L129.116 185.282Z" fill="#2F2E41"/>
<path d="M136.336 179.863C136.277 179.863 136.217 179.86 136.157 179.855L129.1 179.342C128.814 179.315 128.539 179.224 128.294 179.074C128.05 178.924 127.843 178.721 127.69 178.479C127.537 178.237 127.442 177.963 127.411 177.678C127.381 177.394 127.416 177.106 127.515 176.837L136.96 155.649C137.028 155.46 137.056 155.259 137.041 155.059C137.027 154.859 136.972 154.664 136.879 154.486C136.786 154.307 136.656 154.149 136.497 154.023C136.339 153.897 136.155 153.806 135.959 153.756C131.517 152.596 120.122 149.51 110.257 145.898C106.031 144.351 103.369 142.115 102.346 139.252C100.996 135.478 102.992 132.036 103.078 131.891L103.145 131.778L112.427 132.621L122.49 133.475L144.543 145.282C146.391 146.28 147.794 147.936 148.474 149.921C149.154 151.906 149.06 154.073 148.211 155.992L138.044 178.755C137.897 179.085 137.658 179.365 137.355 179.562C137.051 179.758 136.698 179.863 136.336 179.863Z" fill="#2F2E41"/>
<path d="M114.041 90.7007C119.684 90.7007 124.258 86.1335 124.258 80.4995C124.258 74.8656 119.684 70.2983 114.041 70.2983C108.399 70.2983 103.824 74.8656 103.824 80.4995C103.824 86.1335 108.399 90.7007 114.041 90.7007Z" fill="#A0616A"/>
<path d="M127.505 186.53L132.605 186.529L135.031 173.323H127.504L127.505 186.53Z" fill="#A0616A"/>
<path d="M126.204 184.867L136.247 184.867H136.248C137.088 184.867 137.921 185.032 138.697 185.353C139.474 185.674 140.179 186.145 140.774 186.738C141.368 187.332 141.839 188.036 142.161 188.812C142.483 189.587 142.648 190.418 142.648 191.257V191.465L126.204 191.466L126.204 184.867Z" fill="#2F2E41"/>
<path d="M133.424 181.109C133.365 181.109 133.305 181.106 133.245 181.101L126.188 180.588C125.902 180.561 125.627 180.47 125.382 180.32C125.138 180.17 124.931 179.967 124.778 179.725C124.625 179.483 124.53 179.209 124.499 178.924C124.469 178.64 124.504 178.352 124.603 178.083L134.049 156.895C134.116 156.706 134.144 156.505 134.13 156.305C134.116 156.105 134.06 155.91 133.967 155.732C133.874 155.553 133.744 155.395 133.585 155.269C133.427 155.143 133.243 155.052 133.047 155.002C128.606 153.842 117.21 150.756 107.345 147.144C103.119 145.597 100.457 143.361 99.4337 140.498C98.0846 136.724 100.08 133.282 100.166 133.137L100.233 133.024L109.515 133.867L119.579 134.721L141.631 146.528C143.479 147.526 144.883 149.182 145.562 151.167C146.242 153.152 146.148 155.319 145.299 157.238L135.133 180.001C134.985 180.331 134.746 180.611 134.443 180.808C134.14 181.004 133.786 181.109 133.424 181.109Z" fill="#2F2E41"/>
<path d="M117.192 96.4852L106.377 92.7472C106.377 92.7472 99.5872 97.9555 102.849 110.876C104.552 117.544 104.056 124.582 101.435 130.945C101.119 131.733 100.755 132.5 100.345 133.243C100.345 133.243 112.409 147.78 123.64 136.981L119.272 116.006C119.272 116.006 126.136 102.092 117.192 96.4852Z" fill="#2F2E41"/>
<path d="M115.31 91.0476C113.856 88.8745 112.708 85.8611 114.309 83.7934C115.889 81.7523 119.006 82.053 121.427 81.1499C124.798 79.8919 126.753 75.9376 126.143 72.3963C125.534 68.855 122.686 65.9193 119.295 64.7181C115.903 63.517 112.078 63.9076 108.756 65.2908C104.668 66.9936 101.16 70.2875 99.6894 74.46C98.2186 78.6325 99.0049 83.6424 102.056 86.8494C105.327 90.2878 110.461 91.2041 115.211 91.1485" fill="#2F2E41"/>
<path d="M105.806 72.51C103.974 73.9993 101.178 73.3378 99.2112 72.0307C97.2443 70.7236 95.6483 68.8624 93.5201 67.8376C89.7683 66.0308 85.2322 67.2319 81.5808 69.2332C77.9293 71.2344 74.6925 73.9992 70.8355 75.5697C66.9784 77.1401 62.0566 77.2178 59.1361 74.2524C58.4173 76.3315 58.3586 78.5814 58.9678 80.6951C59.5771 82.8088 60.8246 84.6833 62.5402 86.0629C64.2559 87.4426 66.356 88.2601 68.5542 88.404C70.7523 88.5478 72.9414 88.011 74.8227 86.8668C79.0489 84.2966 81.3832 78.9074 86.1233 77.4887C88.7462 76.7037 91.5628 77.336 94.2137 78.0208C96.8647 78.7056 99.6289 79.4456 102.304 78.8626C104.979 78.2796 107.482 75.8792 107.142 73.1663L105.806 72.51Z" fill="#2F2E41"/>
<path d="M139.065 168.631C137.983 161.615 137.983 154.475 139.065 147.459C139.134 147.041 139.349 146.661 139.671 146.387C139.994 146.113 140.404 145.962 140.828 145.961H157.414C157.683 145.96 157.948 146.021 158.19 146.138C158.432 146.255 158.644 146.425 158.81 146.637C158.979 146.851 159.098 147.101 159.156 147.367C159.214 147.634 159.21 147.91 159.146 148.175C157.594 154.664 157.594 161.426 159.145 167.914C159.21 168.179 159.214 168.456 159.156 168.722C159.098 168.989 158.979 169.239 158.81 169.453C158.644 169.664 158.432 169.835 158.19 169.952C157.948 170.069 157.683 170.129 157.414 170.128H140.828C140.404 170.128 139.994 169.977 139.671 169.702C139.349 169.428 139.134 169.048 139.065 168.631Z" fill="#6C63FF"/>
<path d="M152.31 156.21H143.606C143.275 156.21 142.958 156.079 142.724 155.845C142.49 155.611 142.358 155.295 142.358 154.964V154.478C142.358 154.147 142.49 153.83 142.724 153.597C142.958 153.363 143.275 153.232 143.606 153.232H152.31C152.641 153.232 152.958 153.363 153.192 153.597C153.426 153.83 153.557 154.147 153.558 154.478V154.964C153.557 155.295 153.426 155.611 153.192 155.845C152.958 156.079 152.641 156.21 152.31 156.21Z" fill="white"/>
<path d="M152.31 161.338H143.606C143.275 161.337 142.958 161.206 142.724 160.972C142.49 160.739 142.358 160.422 142.358 160.092V159.605C142.358 159.274 142.49 158.958 142.724 158.724C142.958 158.49 143.275 158.359 143.606 158.359H152.31C152.641 158.359 152.958 158.49 153.192 158.724C153.426 158.958 153.557 159.274 153.558 159.605V160.092C153.557 160.422 153.426 160.739 153.192 160.972C152.958 161.206 152.641 161.337 152.31 161.338Z" fill="white"/>
<path d="M143.427 147.946C143.674 147.342 143.786 146.691 143.754 146.04C143.722 145.388 143.547 144.752 143.242 144.175C142.937 143.598 142.509 143.095 141.988 142.701C141.467 142.307 140.867 142.032 140.228 141.896L119.372 106.997L111.989 113.307L134.811 145.627C134.652 146.713 134.898 147.821 135.501 148.739C136.105 149.657 137.025 150.321 138.087 150.607C139.149 150.893 140.279 150.78 141.264 150.29C142.248 149.799 143.017 148.965 143.427 147.946L143.427 147.946Z" fill="#A0616A"/>
<path d="M123.516 112.655L114.718 117.648C114.468 117.79 114.19 117.877 113.903 117.902C113.616 117.927 113.327 117.89 113.056 117.794C112.785 117.697 112.537 117.543 112.331 117.343C112.125 117.143 111.964 116.9 111.86 116.632L108.213 107.239C107.493 105.956 107.311 104.441 107.708 103.024C108.105 101.608 109.048 100.406 110.331 99.6831C111.614 98.96 113.131 98.7742 114.551 99.1666C115.971 99.559 117.177 100.497 117.905 101.776L124.104 109.683C124.281 109.909 124.408 110.171 124.475 110.451C124.542 110.73 124.547 111.021 124.492 111.303C124.436 111.585 124.32 111.852 124.151 112.085C123.983 112.318 123.766 112.513 123.516 112.655Z" fill="#2F2E41"/>
<path d="M217.129 124.913H48.2402C47.5231 124.913 46.8353 125.198 46.3283 125.704C45.8212 126.21 45.5363 126.897 45.5363 127.613C45.5363 128.329 45.8212 129.016 46.3283 129.522C46.8353 130.028 47.5231 130.313 48.2402 130.313H53.024V189.083C53.024 189.799 53.3088 190.486 53.8159 190.992C54.323 191.499 55.0107 191.783 55.7279 191.783C56.445 191.783 57.1327 191.499 57.6398 190.992C58.1469 190.486 58.4317 189.799 58.4317 189.083V135.5L88.7447 190.358C89.1041 190.976 89.6945 191.427 90.3865 191.612C91.0784 191.796 91.8154 191.699 92.4356 191.341C93.0558 190.984 93.5086 190.395 93.6947 189.704C93.8807 189.014 93.7848 188.278 93.428 187.658L61.7403 130.313H206.521V130.348L174.853 187.658C174.494 188.278 174.397 189.015 174.583 189.706C174.768 190.398 175.221 190.988 175.842 191.346C176.463 191.704 177.201 191.801 177.894 191.615C178.587 191.43 179.177 190.978 179.536 190.358L206.521 141.523V189.083C206.521 189.799 206.806 190.486 207.313 190.992C207.82 191.499 208.508 191.783 209.225 191.783C209.942 191.783 210.63 191.499 211.137 190.992C211.644 190.486 211.929 189.799 211.929 189.083V131.736L212.715 130.313H217.129C217.846 130.313 218.533 130.028 219.04 129.522C219.548 129.016 219.832 128.329 219.832 127.613C219.832 126.897 219.548 126.21 219.04 125.704C218.533 125.198 217.846 124.913 217.129 124.913Z" fill="#3F3D56"/>
<path d="M147.244 123.252H114.381C113.577 123.252 112.925 123.903 112.925 124.706C112.925 125.509 113.577 126.159 114.381 126.159H147.244C148.048 126.159 148.7 125.509 148.7 124.706C148.7 123.903 148.048 123.252 147.244 123.252Z" fill="#CCCCCC"/>
<path d="M169.291 126.159H132.268C131.551 126.159 130.864 125.874 130.357 125.368C129.85 124.862 129.565 124.175 129.564 123.46V103.108C129.565 102.392 129.85 101.706 130.357 101.2C130.864 100.694 131.551 100.409 132.268 100.408H169.291C170.008 100.409 170.695 100.694 171.202 101.2C171.709 101.706 171.994 102.392 171.995 103.108V123.46C171.994 124.175 171.709 124.862 171.202 125.368C170.695 125.874 170.008 126.159 169.291 126.159Z" fill="#CCCCCC"/>
<path d="M150.78 115.776C152.158 115.776 153.275 114.66 153.275 113.284C153.275 111.908 152.158 110.792 150.78 110.792C149.401 110.792 148.284 111.908 148.284 113.284C148.284 114.66 149.401 115.776 150.78 115.776Z" fill="white"/>
<path d="M197.544 76.0161V3.12395C197.545 2.29571 197.875 1.50167 198.462 0.916022C199.048 0.330372 199.844 0.00094209 200.673 0H258.382C259.211 0.00094209 260.006 0.330372 260.593 0.916022C261.18 1.50167 261.509 2.29571 261.51 3.12395V76.0161C261.509 76.8444 261.18 77.6384 260.593 78.2241C260.006 78.8097 259.211 79.1392 258.382 79.1401H200.673C199.844 79.1392 199.048 78.8097 198.462 78.2241C197.875 77.6384 197.545 76.8444 197.544 76.0161ZM200.673 0.694213C200.028 0.694936 199.409 0.951158 198.953 1.40667C198.497 1.86217 198.24 2.47976 198.24 3.12395V76.0161C198.24 76.6603 198.497 77.2779 198.953 77.7334C199.409 78.1889 200.028 78.4452 200.673 78.4459H258.382C259.027 78.4452 259.645 78.1889 260.102 77.7334C260.558 77.2779 260.814 76.6603 260.815 76.0161V3.12395C260.814 2.47976 260.558 1.86217 260.102 1.40667C259.645 0.951158 259.027 0.694936 258.382 0.694213H200.673Z" fill="#E6E6E6"/>
<path d="M232.764 33.4755V18.5084C232.764 18.0943 232.929 17.6972 233.222 17.4044C233.516 17.1116 233.913 16.9469 234.328 16.9464H247.031C247.445 16.9469 247.843 17.1116 248.136 17.4044C248.43 17.6972 248.595 18.0943 248.595 18.5084V33.4755C248.595 33.8896 248.43 34.2866 248.136 34.5794C247.843 34.8723 247.445 35.037 247.031 35.0374H234.328C233.913 35.037 233.516 34.8723 233.222 34.5794C232.929 34.2866 232.764 33.8896 232.764 33.4755Z" fill="#6C63FF"/>
<path d="M208.081 40.4176V25.4505C208.081 25.0364 208.246 24.6394 208.54 24.3465C208.833 24.0537 209.231 23.889 209.645 23.8885H222.348C222.763 23.889 223.161 24.0537 223.454 24.3465C223.747 24.6394 223.912 25.0364 223.913 25.4505V40.4176C223.912 40.8317 223.747 41.2287 223.454 41.5216C223.161 41.8144 222.763 41.9791 222.348 41.9796H209.645C209.231 41.9791 208.833 41.8144 208.54 41.5216C208.246 41.2287 208.081 40.8317 208.081 40.4176Z" fill="#CCCCCC"/>
<path d="M227.897 61.591V46.6239C227.897 46.2098 228.062 45.8128 228.355 45.52C228.649 45.2271 229.046 45.0624 229.461 45.062H242.164C242.578 45.0624 242.976 45.2271 243.269 45.52C243.563 45.8128 243.728 46.2098 243.728 46.6239V61.591C243.728 62.0051 243.563 62.4022 243.269 62.695C242.976 62.9878 242.578 63.1525 242.164 63.153H229.461C229.046 63.1525 228.649 62.9878 228.355 62.695C228.062 62.4022 227.897 62.0051 227.897 61.591Z" fill="#FF6584"/>
<path d="M324.774 7.5954C326.259 7.5954 327.464 6.39285 327.464 4.90944C327.464 3.42602 326.259 2.22348 324.774 2.22348C323.288 2.22348 322.084 3.42602 322.084 4.90944C322.084 6.39285 323.288 7.5954 324.774 7.5954Z" fill="#F2F2F2"/>
<path d="M324.774 18.3001C326.259 18.3001 327.464 17.0975 327.464 15.6141C327.464 14.1307 326.259 12.9282 324.774 12.9282C323.288 12.9282 322.084 14.1307 322.084 15.6141C322.084 17.0975 323.288 18.3001 324.774 18.3001Z" fill="#F2F2F2"/>
<path d="M324.774 29.0048C326.259 29.0048 327.464 27.8022 327.464 26.3188C327.464 24.8354 326.259 23.6329 324.774 23.6329C323.288 23.6329 322.084 24.8354 322.084 26.3188C322.084 27.8022 323.288 29.0048 324.774 29.0048Z" fill="#F2F2F2"/>
<path d="M324.774 39.7095C326.259 39.7095 327.464 38.5069 327.464 37.0235C327.464 35.5401 326.259 34.3375 324.774 34.3375C323.288 34.3375 322.084 35.5401 322.084 37.0235C322.084 38.5069 323.288 39.7095 324.774 39.7095Z" fill="#F2F2F2"/>
<path d="M313.542 7.5954C315.028 7.5954 316.232 6.39285 316.232 4.90944C316.232 3.42602 315.028 2.22348 313.542 2.22348C312.056 2.22348 310.852 3.42602 310.852 4.90944C310.852 6.39285 312.056 7.5954 313.542 7.5954Z" fill="#F2F2F2"/>
<path d="M313.542 18.3001C315.028 18.3001 316.232 17.0975 316.232 15.6141C316.232 14.1307 315.028 12.9282 313.542 12.9282C312.056 12.9282 310.852 14.1307 310.852 15.6141C310.852 17.0975 312.056 18.3001 313.542 18.3001Z" fill="#F2F2F2"/>
<path d="M313.542 29.0048C315.028 29.0048 316.232 27.8022 316.232 26.3188C316.232 24.8354 315.028 23.6329 313.542 23.6329C312.056 23.6329 310.852 24.8354 310.852 26.3188C310.852 27.8022 312.056 29.0048 313.542 29.0048Z" fill="#F2F2F2"/>
<path d="M313.542 39.7095C315.028 39.7095 316.232 38.5069 316.232 37.0235C316.232 35.5401 315.028 34.3375 313.542 34.3375C312.056 34.3375 310.852 35.5401 310.852 37.0235C310.852 38.5069 312.056 39.7095 313.542 39.7095Z" fill="#F2F2F2"/>
<path d="M302.311 7.5954C303.796 7.5954 305.001 6.39285 305.001 4.90944C305.001 3.42602 303.796 2.22348 302.311 2.22348C300.825 2.22348 299.621 3.42602 299.621 4.90944C299.621 6.39285 300.825 7.5954 302.311 7.5954Z" fill="#F2F2F2"/>
<path d="M302.311 18.3001C303.796 18.3001 305.001 17.0975 305.001 15.6141C305.001 14.1307 303.796 12.9282 302.311 12.9282C300.825 12.9282 299.621 14.1307 299.621 15.6141C299.621 17.0975 300.825 18.3001 302.311 18.3001Z" fill="#F2F2F2"/>
<path d="M302.311 29.0048C303.796 29.0048 305.001 27.8022 305.001 26.3188C305.001 24.8354 303.796 23.6329 302.311 23.6329C300.825 23.6329 299.621 24.8354 299.621 26.3188C299.621 27.8022 300.825 29.0048 302.311 29.0048Z" fill="#F2F2F2"/>
<path d="M302.311 39.7095C303.796 39.7095 305.001 38.5069 305.001 37.0235C305.001 35.5401 303.796 34.3375 302.311 34.3375C300.825 34.3375 299.621 35.5401 299.621 37.0235C299.621 38.5069 300.825 39.7095 302.311 39.7095Z" fill="#F2F2F2"/>
<path d="M291.079 7.5954C292.565 7.5954 293.769 6.39285 293.769 4.90944C293.769 3.42602 292.565 2.22348 291.079 2.22348C289.593 2.22348 288.389 3.42602 288.389 4.90944C288.389 6.39285 289.593 7.5954 291.079 7.5954Z" fill="#F2F2F2"/>
<path d="M291.079 18.3001C292.565 18.3001 293.769 17.0975 293.769 15.6141C293.769 14.1307 292.565 12.9282 291.079 12.9282C289.593 12.9282 288.389 14.1307 288.389 15.6141C288.389 17.0975 289.593 18.3001 291.079 18.3001Z" fill="#F2F2F2"/>
<path d="M291.079 29.0048C292.565 29.0048 293.769 27.8022 293.769 26.3188C293.769 24.8354 292.565 23.6329 291.079 23.6329C289.593 23.6329 288.389 24.8354 288.389 26.3188C288.389 27.8022 289.593 29.0048 291.079 29.0048Z" fill="#F2F2F2"/>
<path d="M291.079 39.7095C292.565 39.7095 293.769 38.5069 293.769 37.0235C293.769 35.5401 292.565 34.3375 291.079 34.3375C289.593 34.3375 288.389 35.5401 288.389 37.0235C288.389 38.5069 289.593 39.7095 291.079 39.7095Z" fill="#F2F2F2"/>
<path d="M279.848 7.5954C281.333 7.5954 282.538 6.39285 282.538 4.90944C282.538 3.42602 281.333 2.22348 279.848 2.22348C278.362 2.22348 277.158 3.42602 277.158 4.90944C277.158 6.39285 278.362 7.5954 279.848 7.5954Z" fill="#F2F2F2"/>
<path d="M279.848 18.3001C281.333 18.3001 282.538 17.0975 282.538 15.6141C282.538 14.1307 281.333 12.9282 279.848 12.9282C278.362 12.9282 277.158 14.1307 277.158 15.6141C277.158 17.0975 278.362 18.3001 279.848 18.3001Z" fill="#F2F2F2"/>
<path d="M279.848 29.0048C281.333 29.0048 282.538 27.8022 282.538 26.3188C282.538 24.8354 281.333 23.6329 279.848 23.6329C278.362 23.6329 277.158 24.8354 277.158 26.3188C277.158 27.8022 278.362 29.0048 279.848 29.0048Z" fill="#F2F2F2"/>
<path d="M279.848 39.7095C281.333 39.7095 282.538 38.5069 282.538 37.0235C282.538 35.5401 281.333 34.3375 279.848 34.3375C278.362 34.3375 277.158 35.5401 277.158 37.0235C277.158 38.5069 278.362 39.7095 279.848 39.7095Z" fill="#F2F2F2"/>
<path d="M268.616 7.5954C270.102 7.5954 271.306 6.39285 271.306 4.90944C271.306 3.42602 270.102 2.22348 268.616 2.22348C267.13 2.22348 265.926 3.42602 265.926 4.90944C265.926 6.39285 267.13 7.5954 268.616 7.5954Z" fill="#F2F2F2"/>
<path d="M268.616 18.3001C270.102 18.3001 271.306 17.0975 271.306 15.6141C271.306 14.1307 270.102 12.9282 268.616 12.9282C267.13 12.9282 265.926 14.1307 265.926 15.6141C265.926 17.0975 267.13 18.3001 268.616 18.3001Z" fill="#F2F2F2"/>
<path d="M268.616 29.0048C270.102 29.0048 271.306 27.8022 271.306 26.3188C271.306 24.8354 270.102 23.6329 268.616 23.6329C267.13 23.6329 265.926 24.8354 265.926 26.3188C265.926 27.8022 267.13 29.0048 268.616 29.0048Z" fill="#F2F2F2"/>
<path d="M268.616 39.7095C270.102 39.7095 271.306 38.5069 271.306 37.0235C271.306 35.5401 270.102 34.3375 268.616 34.3375C267.13 34.3375 265.926 35.5401 265.926 37.0235C265.926 38.5069 267.13 39.7095 268.616 39.7095Z" fill="#F2F2F2"/>
<path d="M279.454 100.202C279.233 99.5969 279.143 98.9522 279.189 98.3101C279.236 97.668 279.417 97.0428 279.722 96.4757C280.027 95.9085 280.449 95.4121 280.96 95.0189C281.47 94.6258 282.058 94.3448 282.685 94.1944C282.884 94.1477 283.086 94.1149 283.289 94.0962L293.398 76.4033L290.846 72.0246L297.2 67.13L302.061 73.8717C302.641 74.6822 302.944 75.6577 302.924 76.6534C302.905 77.6492 302.564 78.6121 301.953 79.3993L288.074 97.1401C288.124 97.281 288.168 97.4245 288.203 97.5698C288.354 98.1959 288.37 98.8467 288.251 99.4795C288.132 100.112 287.881 100.713 287.513 101.242C287.145 101.771 286.67 102.216 286.118 102.549C285.566 102.882 284.95 103.094 284.31 103.173C284.124 103.196 283.937 103.208 283.749 103.208C282.812 103.205 281.897 102.915 281.129 102.378C280.361 101.84 279.777 101.081 279.454 100.202Z" fill="#FFB8B8"/>
<path d="M259.73 187.272L254.63 187.271L252.204 167.631L259.731 167.631L259.73 187.272Z" fill="#FFB8B8"/>
<path d="M250.988 185.817H260.823V192H244.795C244.795 191.188 244.955 190.384 245.266 189.633C245.578 188.883 246.034 188.202 246.609 187.628C247.184 187.053 247.867 186.598 248.618 186.287C249.369 185.976 250.174 185.817 250.988 185.817Z" fill="#2F2E41"/>
<path d="M301.744 187.272L296.644 187.271L294.218 167.631L301.745 167.631L301.744 187.272Z" fill="#FFB8B8"/>
<path d="M293.002 185.817H302.837V192H286.809C286.809 191.188 286.969 190.384 287.28 189.633C287.592 188.883 288.048 188.202 288.623 187.628C289.198 187.053 289.881 186.598 290.632 186.287C291.383 185.976 292.189 185.817 293.002 185.817Z" fill="#2F2E41"/>
<path d="M298.614 68.0864L287.165 72.4305L284.369 64.6775C283.998 63.648 284.003 62.5207 284.384 61.4947C284.765 60.4687 285.496 59.6101 286.45 59.0706C287.414 58.525 288.542 58.3416 289.63 58.5537C290.718 58.7658 291.695 59.3593 292.383 60.2271L298.614 68.0864Z" fill="#6C63FF"/>
<path d="M260.171 171.365L250.568 169.178C250.057 169.061 249.61 168.755 249.316 168.322C249.022 167.889 248.902 167.361 248.982 166.844C252.835 142.459 256.542 128.179 266.096 110.045C266.229 109.707 267.721 102.844 268.694 98.2971C268.683 97.7961 268.855 97.3082 269.177 96.9243C269.5 96.5404 269.951 96.2867 270.447 96.2104L288.353 93.459C288.623 93.3655 288.908 93.3226 289.194 93.3327L289.373 93.3665L289.37 93.5424C289.368 93.7241 289.187 93.7519 289.119 93.7624L288.881 93.7989C289.153 93.9252 289.402 94.0944 289.619 94.3C297.465 103.721 301.544 134.605 306.726 168.723C306.754 169 306.721 169.279 306.627 169.542C306.533 169.804 306.381 170.042 306.183 170.238C305.996 170.442 305.769 170.606 305.516 170.721C305.263 170.835 304.989 170.897 304.712 170.902L293.272 171.181C292.769 171.192 292.28 171.021 291.894 170.698C291.509 170.376 291.254 169.925 291.177 169.429L283.472 124.967C283.418 124.62 283.256 124.298 283.007 124.05C282.759 123.801 282.437 123.638 282.089 123.585C281.741 123.531 281.386 123.59 281.074 123.752C280.761 123.914 280.509 124.172 280.354 124.487C274.137 137.128 268.34 148.06 262.63 169.87C262.517 170.312 262.26 170.704 261.899 170.984C261.538 171.264 261.094 171.417 260.637 171.417C260.48 171.417 260.324 171.4 260.171 171.365Z" fill="#2F2E41"/>
<path d="M269.492 98.8049C269.251 98.6347 269.049 98.4153 268.899 98.1611C268.75 97.907 268.656 97.624 268.625 97.3309C267.158 83.6622 268.18 72.9654 271.747 64.6292C272.375 63.1914 273.322 61.9145 274.516 60.8944C275.709 59.8744 277.119 59.1377 278.639 58.7398L287.894 58.2733L287.942 58.2965C290.031 59.3178 291.734 60.9841 292.799 63.0481C293.865 65.1121 294.236 67.464 293.857 69.755C290.88 77.5897 288.387 85.7468 290.288 92.3272C290.368 92.6023 290.391 92.8906 290.357 93.1749C290.322 93.4592 290.23 93.7336 290.087 93.9816C289.948 94.2214 289.761 94.4302 289.538 94.5951C289.316 94.7601 289.061 94.8777 288.791 94.9407L271.162 99.1278C270.877 99.1956 270.58 99.2019 270.292 99.1462C270.004 99.0905 269.731 98.9742 269.492 98.8049Z" fill="#6C63FF"/>
<path d="M265.507 79.1894L247.756 65.2066C247.614 65.2562 247.47 65.2986 247.325 65.3335C246.698 65.4799 246.048 65.4929 245.416 65.3719C244.784 65.2509 244.184 64.9985 243.657 64.631C243.125 64.2633 242.679 63.7866 242.347 63.2326C242.015 62.6787 241.805 62.0604 241.732 61.419C241.613 60.3938 241.845 59.3584 242.389 58.481C242.933 57.6035 243.759 56.9355 244.731 56.5852C245.338 56.3679 245.984 56.281 246.627 56.3303C247.27 56.3796 247.895 56.5639 248.461 56.8712C249.028 57.1786 249.523 57.6019 249.914 58.1136C250.306 58.6253 250.584 59.2137 250.732 59.8404C250.778 60.039 250.81 60.2405 250.827 60.4436L268.499 70.6224L272.896 68.0945L277.768 74.4625L270.94 79.3216C270.141 79.8858 269.18 80.1776 268.202 80.1538C267.223 80.13 266.278 79.7918 265.507 79.1894H265.507Z" fill="#FFB8B8"/>
<path d="M279.934 76.4456L269.805 69.5686L274.565 62.8373C275.198 61.9435 276.126 61.3015 277.186 61.0249C278.246 60.7482 279.37 60.8547 280.359 61.3255C281.36 61.8017 282.157 62.6195 282.607 63.6312C283.057 64.6429 283.129 65.7818 282.811 66.8423L279.934 76.4456Z" fill="#6C63FF"/>
<path d="M284.805 54.8218C290.448 54.8218 295.022 50.2545 295.022 44.6206C295.022 38.9866 290.448 34.4194 284.805 34.4194C279.163 34.4194 274.588 38.9866 274.588 44.6206C274.588 50.2545 279.163 54.8218 284.805 54.8218Z" fill="#FFB8B8"/>
<path d="M281.059 43.1012C278.433 44.8957 274.985 46.7403 272.303 44.8293C270.542 43.5745 269.987 41.251 270.702 39.2119C271.986 35.545 275.514 33.9307 278.888 32.6933C283.275 31.0847 288.051 29.8049 292.579 30.957C297.107 32.109 301.109 36.4863 300.291 41.08C299.634 44.7741 296.144 47.8479 296.639 51.5672C297.138 55.3103 301.354 57.2805 305.076 57.9495C308.798 58.6185 312.963 58.8335 315.638 61.5028C319.051 64.9081 318.198 70.9947 314.988 74.59C311.777 78.1853 306.931 79.8151 302.236 80.923C296.015 82.3909 289.287 83.1623 283.379 80.7262C277.471 78.29 272.873 71.7322 274.584 65.583C275.307 62.9855 277.01 60.7903 278.656 58.6532C280.302 56.5161 281.969 54.2814 282.597 51.6594C283.12 49.4744 282.733 46.9375 281.281 45.2985C281.017 45.0116 280.851 44.6486 280.807 44.2616C280.762 43.8745 280.842 43.4834 281.034 43.1444L281.059 43.1012Z" fill="#2F2E41"/>
</svg>
